<mxfile host="app.diagrams.net" modified="2021-03-30T05:40:52.268Z" agent="5.0 (Macintosh; Intel Mac OS X 11_2_3) AppleWebKit/537.36 (KHTML, like Gecko) Chrome/89.0.4389.90 Safari/537.36" etag="aYVDDtXjbqcP8ULqF3IZ" version="14.5.1" type="github">
  <diagram id="3FaWOHaZKq2cffuInRZj" name="第 1 页">
    <mxGraphModel dx="834" dy="440" grid="0" gridSize="10" guides="1" tooltips="1" connect="1" arrows="1" fold="1" page="1" pageScale="1" pageWidth="1169" pageHeight="827" background="#FFFDF0" math="0" shadow="0">
      <root>
        <mxCell id="0" />
        <mxCell id="1" parent="0" />
        <mxCell id="H9ZPJ3RgS6tobJiZP8Ob-1" value="&lt;font style=&quot;font-size: 19px&quot;&gt;&amp;nbsp; &amp;nbsp; &amp;nbsp; &amp;nbsp; &amp;nbsp;LVS 负载均衡&lt;/font&gt;" style="html=1;whiteSpace=wrap;container=1;recursiveResize=0;collapsible=0;rounded=1;shadow=1;sketch=1;strokeWidth=2;fillColor=#dae8fc;fillStyle=solid;" vertex="1" parent="1">
          <mxGeometry x="500" y="380" width="280" height="120" as="geometry" />
        </mxCell>
        <mxCell id="H9ZPJ3RgS6tobJiZP8Ob-2" value="" style="triangle;html=1;whiteSpace=wrap;rounded=1;shadow=0;sketch=0;strokeWidth=2;fillColor=#FF0000;fillStyle=solid;" vertex="1" parent="H9ZPJ3RgS6tobJiZP8Ob-1">
          <mxGeometry x="40" y="35" width="40" height="50" as="geometry" />
        </mxCell>
      </root>
    </mxGraphModel>
  </diagram>
</mxfile>
